<?xml version="1.0" standalone="no"?>
<!DOCTYPE svg PUBLIC "-//W3C//DTD SVG 20010904//EN"
 "http://www.w3.org/TR/2001/REC-SVG-20010904/DTD/svg10.dtd">
<svg version="1.0" xmlns="http://www.w3.org/2000/svg"
 width="32pt" height="32pt" viewBox="0 0 130.000000 100.000000"
 preserveAspectRatio="xMidYMid meet">

<g transform="translate(-100.000000,250.000000) scale(0.1000000,-0.100000)"
fill="#e50914" stroke="none">
<path d="M1323 2649 c-110 -21 -203 -95 -251 -197 l-27 -57 0 -370 0 -370 34
-63 c42 -77 104 -134 180 -164 54 -22 65 -23 391 -23 330 0 336 0 394 24 84
33 166 116 196 196 19 52 22 87 27 273 5 156 3 212 -5 212 -7 0 -12 -4 -12 -9
0 -4 -39 -49 -87 -98 -62 -63 -104 -98 -143 -116 -30 -14 -214 -100 -408 -191
-334 -157 -403 -183 -401 -153 0 6 55 50 121 97 67 47 212 153 322 235 111 83
284 212 386 287 102 75 193 145 204 157 24 26 17 73 -21 148 -47 94 -142 161
-258 182 -68 13 -578 13 -642 0z m262 -348 c206 -170 265 -222 265 -236 0 -7
-104 -90 -232 -186 -244 -184 -268 -200 -280 -193 -9 6 -11 765 -2 788 8 20
51 -10 249 -173z"/>
</g>
</svg>
