<?xml version="1.0" standalone="no"?>
<!DOCTYPE svg PUBLIC "-//W3C//DTD SVG 20010904//EN"
 "http://www.w3.org/TR/2001/REC-SVG-20010904/DTD/svg10.dtd">
<svg version="1.0" xmlns="http://www.w3.org/2000/svg"
 width="150pt" height="40pt" viewBox="0 0 500.000000 106.000000"
 preserveAspectRatio="xMidYMid meet">

<g transform="translate(-100.000000,250.000000) scale(0.1000000,-0.100000)"
fill="#e50914" stroke="none">
<path d="M1323 2649 c-110 -21 -203 -95 -251 -197 l-27 -57 0 -370 0 -370 34
-63 c42 -77 104 -134 180 -164 54 -22 65 -23 391 -23 330 0 336 0 394 24 84
33 166 116 196 196 19 52 22 87 27 273 5 156 3 212 -5 212 -7 0 -12 -4 -12 -9
0 -4 -39 -49 -87 -98 -62 -63 -104 -98 -143 -116 -30 -14 -214 -100 -408 -191
-334 -157 -403 -183 -401 -153 0 6 55 50 121 97 67 47 212 153 322 235 111 83
284 212 386 287 102 75 193 145 204 157 24 26 17 73 -21 148 -47 94 -142 161
-258 182 -68 13 -578 13 -642 0z m262 -348 c206 -170 265 -222 265 -236 0 -7
-104 -90 -232 -186 -244 -184 -268 -200 -280 -193 -9 6 -11 765 -2 788 8 20
51 -10 249 -173z"/>
<path d="M2658 2217 c-50 -14 -63 -22 -116 -71 -71 -65 -98 -167 -69 -267 20
-68 69 -126 138 -164 93 -50 223 -36 302 33 23 21 21 33 -14 60 l-29 24 -33
-21 c-159 -98 -340 66 -254 229 45 86 168 117 245 61 35 -25 59 -22 87 9 18
20 17 21 -6 46 -56 60 -162 86 -251 61z"/>
<path d="M4345 2212 c-69 -24 -117 -63 -149 -123 -75 -137 -26 -297 115 -374
44 -24 66 -29 119 -29 70 0 141 26 176 65 17 19 17 21 -12 50 l-31 30 -48 -25
c-57 -31 -95 -32 -150 -7 -98 45 -132 144 -82 241 43 87 148 115 236 65 41
-24 45 -24 68 -10 40 26 40 45 2 77 -37 31 -114 58 -163 58 -17 -1 -54 -8 -81
-18z"/>
<path d="M5318 2215 c-78 -25 -119 -96 -104 -180 11 -58 47 -90 128 -115 107
-32 117 -37 128 -65 20 -52 -13 -84 -84 -85 -44 0 -53 4 -86 39 l-38 39 -31
-19 c-41 -25 -40 -53 4 -94 63 -60 195 -71 272 -24 63 39 83 136 40 199 -28
42 -70 68 -145 87 -71 18 -92 36 -92 80 0 30 5 36 37 49 45 19 92 12 132 -21
36 -31 42 -31 71 0 l24 25 -20 27 c-45 59 -150 85 -236 58z"/>
<path d="M3007 2214 c-4 -4 -7 -123 -7 -265 l0 -257 29 -7 c17 -3 39 -1 51 5
20 11 20 17 18 268 l-3 257 -40 3 c-23 2 -44 0 -48 -4z"/>
<path d="M3527 2214 c-4 -4 -7 -77 -7 -161 0 -127 -2 -153 -14 -146 -7 4 -73
72 -146 151 -73 78 -139 142 -147 142 -11 0 -13 -46 -11 -257 l3 -258 33 -3
c59 -6 64 6 60 154 -1 73 0 135 3 139 4 3 73 -64 155 -150 81 -85 152 -151
156 -147 5 5 7 127 6 273 l-3 264 -40 3 c-23 2 -44 0 -48 -4z"/>
<path d="M3727 2213 c-4 -3 -7 -123 -7 -265 l0 -258 194 0 c213 0 220 2 193
58 l-12 27 -138 3 -138 3 3 67 3 67 80 -3 c92 -4 131 7 147 43 21 46 0 55
-123 55 l-109 0 0 60 0 60 138 0 139 0 11 25 c7 14 12 35 12 45 0 19 -8 20
-193 20 -107 0 -197 -3 -200 -7z"/>
<path d="M4855 2143 c-20 -43 -64 -138 -96 -211 -33 -73 -71 -156 -85 -184
-14 -28 -22 -54 -17 -59 5 -5 29 -5 53 -1 l44 7 76 168 c41 92 77 167 80 167
6 0 50 -106 50 -120 0 -6 -13 -10 -29 -10 -53 0 -81 -69 -43 -103 13 -12 37
-17 80 -17 l61 0 20 -44 c21 -48 40 -59 88 -48 l32 7 -117 262 c-138 310 -137
310 -197 186z"/>
<path d="M5613 2204 c-3 -9 -2 -28 3 -43 9 -24 14 -26 77 -29 l67 -3 0 -205
c0 -122 4 -213 10 -225 12 -22 59 -26 78 -7 9 9 12 73 12 225 l0 213 59 0 c64
0 77 9 87 58 l7 32 -197 0 c-172 0 -197 -2 -203 -16z"/>
</g>
</svg>
